<svg xmlns="http://www.w3.org/2000/svg" version="1.1" xmlns:xlink="http://www.w3.org/1999/xlink" xmlns:svgjs="http://svgjs.dev/svgjs" viewBox="0 0 800 800" opacity="0.56" width="800" height="800"><g stroke-width="1" stroke="#39373b" fill="none"><line x1="0" y1="0" x2="114.28571428571429" y2="114.28571428571429"></line><line x1="114.28571428571429" y1="0" x2="0" y2="114.28571428571429"></line><line x1="114.28571428571429" y1="0" x2="228.57142857142858" y2="114.28571428571429"></line><line x1="228.57142857142858" y1="0" x2="114.28571428571429" y2="114.28571428571429"></line><line x1="228.57142857142858" y1="0" x2="342.8571428571429" y2="114.28571428571429"></line><line x1="342.8571428571429" y1="0" x2="228.57142857142858" y2="114.28571428571429"></line><line x1="342.8571428571429" y1="0" x2="457.14285714285717" y2="114.28571428571429"></line><line x1="457.14285714285717" y1="0" x2="342.8571428571429" y2="114.28571428571429"></line><line x1="457.14285714285717" y1="0" x2="571.4285714285714" y2="114.28571428571429"></line><line x1="571.4285714285714" y1="0" x2="457.14285714285717" y2="114.28571428571429"></line><line x1="571.4285714285714" y1="0" x2="685.7142857142858" y2="114.28571428571429"></line><line x1="685.7142857142858" y1="0" x2="571.4285714285714" y2="114.28571428571429"></line><line x1="685.7142857142858" y1="0" x2="800.0000000000001" y2="114.28571428571429"></line><line x1="800.0000000000001" y1="0" x2="685.7142857142858" y2="114.28571428571429"></line><line x1="800.0000000000001" y1="0" x2="914.2857142857144" y2="114.28571428571429"></line><line x1="914.2857142857144" y1="0" x2="800.0000000000001" y2="114.28571428571429"></line><line x1="0" y1="114.28571428571429" x2="114.28571428571429" y2="228.57142857142858"></line><line x1="114.28571428571429" y1="114.28571428571429" x2="0" y2="228.57142857142858"></line><line x1="114.28571428571429" y1="114.28571428571429" x2="228.57142857142858" y2="228.57142857142858"></line><line x1="228.57142857142858" y1="114.28571428571429" x2="114.28571428571429" y2="228.57142857142858"></line><line x1="228.57142857142858" y1="114.28571428571429" x2="342.8571428571429" y2="228.57142857142858"></line><line x1="342.8571428571429" y1="114.28571428571429" x2="228.57142857142858" y2="228.57142857142858"></line><line x1="342.8571428571429" y1="114.28571428571429" x2="457.14285714285717" y2="228.57142857142858"></line><line x1="457.14285714285717" y1="114.28571428571429" x2="342.8571428571429" y2="228.57142857142858"></line><line x1="457.14285714285717" y1="114.28571428571429" x2="571.4285714285714" y2="228.57142857142858"></line><line x1="571.4285714285714" y1="114.28571428571429" x2="457.14285714285717" y2="228.57142857142858"></line><line x1="571.4285714285714" y1="114.28571428571429" x2="685.7142857142858" y2="228.57142857142858"></line><line x1="685.7142857142858" y1="114.28571428571429" x2="571.4285714285714" y2="228.57142857142858"></line><line x1="685.7142857142858" y1="114.28571428571429" x2="800.0000000000001" y2="228.57142857142858"></line><line x1="800.0000000000001" y1="114.28571428571429" x2="685.7142857142858" y2="228.57142857142858"></line><line x1="800.0000000000001" y1="114.28571428571429" x2="914.2857142857144" y2="228.57142857142858"></line><line x1="914.2857142857144" y1="114.28571428571429" x2="800.0000000000001" y2="228.57142857142858"></line><line x1="0" y1="228.57142857142858" x2="114.28571428571429" y2="342.8571428571429"></line><line x1="114.28571428571429" y1="228.57142857142858" x2="0" y2="342.8571428571429"></line><line x1="114.28571428571429" y1="228.57142857142858" x2="228.57142857142858" y2="342.8571428571429"></line><line x1="228.57142857142858" y1="228.57142857142858" x2="114.28571428571429" y2="342.8571428571429"></line><line x1="228.57142857142858" y1="228.57142857142858" x2="342.8571428571429" y2="342.8571428571429"></line><line x1="342.8571428571429" y1="228.57142857142858" x2="228.57142857142858" y2="342.8571428571429"></line><line x1="342.8571428571429" y1="228.57142857142858" x2="457.14285714285717" y2="342.8571428571429"></line><line x1="457.14285714285717" y1="228.57142857142858" x2="342.8571428571429" y2="342.8571428571429"></line><line x1="457.14285714285717" y1="228.57142857142858" x2="571.4285714285714" y2="342.8571428571429"></line><line x1="571.4285714285714" y1="228.57142857142858" x2="457.14285714285717" y2="342.8571428571429"></line><line x1="571.4285714285714" y1="228.57142857142858" x2="685.7142857142858" y2="342.8571428571429"></line><line x1="685.7142857142858" y1="228.57142857142858" x2="571.4285714285714" y2="342.8571428571429"></line><line x1="685.7142857142858" y1="228.57142857142858" x2="800.0000000000001" y2="342.8571428571429"></line><line x1="800.0000000000001" y1="228.57142857142858" x2="685.7142857142858" y2="342.8571428571429"></line><line x1="800.0000000000001" y1="228.57142857142858" x2="914.2857142857144" y2="342.8571428571429"></line><line x1="914.2857142857144" y1="228.57142857142858" x2="800.0000000000001" y2="342.8571428571429"></line><line x1="0" y1="342.8571428571429" x2="114.28571428571429" y2="457.14285714285717"></line><line x1="114.28571428571429" y1="342.8571428571429" x2="0" y2="457.14285714285717"></line><line x1="114.28571428571429" y1="342.8571428571429" x2="228.57142857142858" y2="457.14285714285717"></line><line x1="228.57142857142858" y1="342.8571428571429" x2="114.28571428571429" y2="457.14285714285717"></line><line x1="228.57142857142858" y1="342.8571428571429" x2="342.8571428571429" y2="457.14285714285717"></line><line x1="342.8571428571429" y1="342.8571428571429" x2="228.57142857142858" y2="457.14285714285717"></line><line x1="342.8571428571429" y1="342.8571428571429" x2="457.14285714285717" y2="457.14285714285717"></line><line x1="457.14285714285717" y1="342.8571428571429" x2="342.8571428571429" y2="457.14285714285717"></line><line x1="457.14285714285717" y1="342.8571428571429" x2="571.4285714285714" y2="457.14285714285717"></line><line x1="571.4285714285714" y1="342.8571428571429" x2="457.14285714285717" y2="457.14285714285717"></line><line x1="571.4285714285714" y1="342.8571428571429" x2="685.7142857142858" y2="457.14285714285717"></line><line x1="685.7142857142858" y1="342.8571428571429" x2="571.4285714285714" y2="457.14285714285717"></line><line x1="685.7142857142858" y1="342.8571428571429" x2="800.0000000000001" y2="457.14285714285717"></line><line x1="800.0000000000001" y1="342.8571428571429" x2="685.7142857142858" y2="457.14285714285717"></line><line x1="800.0000000000001" y1="342.8571428571429" x2="914.2857142857144" y2="457.14285714285717"></line><line x1="914.2857142857144" y1="342.8571428571429" x2="800.0000000000001" y2="457.14285714285717"></line><line x1="0" y1="457.14285714285717" x2="114.28571428571429" y2="571.4285714285714"></line><line x1="114.28571428571429" y1="457.14285714285717" x2="0" y2="571.4285714285714"></line><line x1="114.28571428571429" y1="457.14285714285717" x2="228.57142857142858" y2="571.4285714285714"></line><line x1="228.57142857142858" y1="457.14285714285717" x2="114.28571428571429" y2="571.4285714285714"></line><line x1="228.57142857142858" y1="457.14285714285717" x2="342.8571428571429" y2="571.4285714285714"></line><line x1="342.8571428571429" y1="457.14285714285717" x2="228.57142857142858" y2="571.4285714285714"></line><line x1="342.8571428571429" y1="457.14285714285717" x2="457.14285714285717" y2="571.4285714285714"></line><line x1="457.14285714285717" y1="457.14285714285717" x2="342.8571428571429" y2="571.4285714285714"></line><line x1="457.14285714285717" y1="457.14285714285717" x2="571.4285714285714" y2="571.4285714285714"></line><line x1="571.4285714285714" y1="457.14285714285717" x2="457.14285714285717" y2="571.4285714285714"></line><line x1="571.4285714285714" y1="457.14285714285717" x2="685.7142857142858" y2="571.4285714285714"></line><line x1="685.7142857142858" y1="457.14285714285717" x2="571.4285714285714" y2="571.4285714285714"></line><line x1="685.7142857142858" y1="457.14285714285717" x2="800.0000000000001" y2="571.4285714285714"></line><line x1="800.0000000000001" y1="457.14285714285717" x2="685.7142857142858" y2="571.4285714285714"></line><line x1="800.0000000000001" y1="457.14285714285717" x2="914.2857142857144" y2="571.4285714285714"></line><line x1="914.2857142857144" y1="457.14285714285717" x2="800.0000000000001" y2="571.4285714285714"></line><line x1="0" y1="571.4285714285714" x2="114.28571428571429" y2="685.7142857142858"></line><line x1="114.28571428571429" y1="571.4285714285714" x2="0" y2="685.7142857142858"></line><line x1="114.28571428571429" y1="571.4285714285714" x2="228.57142857142858" y2="685.7142857142858"></line><line x1="228.57142857142858" y1="571.4285714285714" x2="114.28571428571429" y2="685.7142857142858"></line><line x1="228.57142857142858" y1="571.4285714285714" x2="342.8571428571429" y2="685.7142857142858"></line><line x1="342.8571428571429" y1="571.4285714285714" x2="228.57142857142858" y2="685.7142857142858"></line><line x1="342.8571428571429" y1="571.4285714285714" x2="457.14285714285717" y2="685.7142857142858"></line><line x1="457.14285714285717" y1="571.4285714285714" x2="342.8571428571429" y2="685.7142857142858"></line><line x1="457.14285714285717" y1="571.4285714285714" x2="571.4285714285714" y2="685.7142857142858"></line><line x1="571.4285714285714" y1="571.4285714285714" x2="457.14285714285717" y2="685.7142857142858"></line><line x1="571.4285714285714" y1="571.4285714285714" x2="685.7142857142858" y2="685.7142857142858"></line><line x1="685.7142857142858" y1="571.4285714285714" x2="571.4285714285714" y2="685.7142857142858"></line><line x1="685.7142857142858" y1="571.4285714285714" x2="800.0000000000001" y2="685.7142857142858"></line><line x1="800.0000000000001" y1="571.4285714285714" x2="685.7142857142858" y2="685.7142857142858"></line><line x1="800.0000000000001" y1="571.4285714285714" x2="914.2857142857144" y2="685.7142857142858"></line><line x1="914.2857142857144" y1="571.4285714285714" x2="800.0000000000001" y2="685.7142857142858"></line><line x1="0" y1="685.7142857142858" x2="114.28571428571429" y2="800.0000000000001"></line><line x1="114.28571428571429" y1="685.7142857142858" x2="0" y2="800.0000000000001"></line><line x1="114.28571428571429" y1="685.7142857142858" x2="228.57142857142858" y2="800.0000000000001"></line><line x1="228.57142857142858" y1="685.7142857142858" x2="114.28571428571429" y2="800.0000000000001"></line><line x1="228.57142857142858" y1="685.7142857142858" x2="342.8571428571429" y2="800.0000000000001"></line><line x1="342.8571428571429" y1="685.7142857142858" x2="228.57142857142858" y2="800.0000000000001"></line><line x1="342.8571428571429" y1="685.7142857142858" x2="457.14285714285717" y2="800.0000000000001"></line><line x1="457.14285714285717" y1="685.7142857142858" x2="342.8571428571429" y2="800.0000000000001"></line><line x1="457.14285714285717" y1="685.7142857142858" x2="571.4285714285714" y2="800.0000000000001"></line><line x1="571.4285714285714" y1="685.7142857142858" x2="457.14285714285717" y2="800.0000000000001"></line><line x1="571.4285714285714" y1="685.7142857142858" x2="685.7142857142858" y2="800.0000000000001"></line><line x1="685.7142857142858" y1="685.7142857142858" x2="571.4285714285714" y2="800.0000000000001"></line><line x1="685.7142857142858" y1="685.7142857142858" x2="800.0000000000001" y2="800.0000000000001"></line><line x1="800.0000000000001" y1="685.7142857142858" x2="685.7142857142858" y2="800.0000000000001"></line><line x1="800.0000000000001" y1="685.7142857142858" x2="914.2857142857144" y2="800.0000000000001"></line><line x1="914.2857142857144" y1="685.7142857142858" x2="800.0000000000001" y2="800.0000000000001"></line><line x1="0" y1="800.0000000000001" x2="114.28571428571429" y2="914.2857142857144"></line><line x1="114.28571428571429" y1="800.0000000000001" x2="0" y2="914.2857142857144"></line><line x1="114.28571428571429" y1="800.0000000000001" x2="228.57142857142858" y2="914.2857142857144"></line><line x1="228.57142857142858" y1="800.0000000000001" x2="114.28571428571429" y2="914.2857142857144"></line><line x1="228.57142857142858" y1="800.0000000000001" x2="342.8571428571429" y2="914.2857142857144"></line><line x1="342.8571428571429" y1="800.0000000000001" x2="228.57142857142858" y2="914.2857142857144"></line><line x1="342.8571428571429" y1="800.0000000000001" x2="457.14285714285717" y2="914.2857142857144"></line><line x1="457.14285714285717" y1="800.0000000000001" x2="342.8571428571429" y2="914.2857142857144"></line><line x1="457.14285714285717" y1="800.0000000000001" x2="571.4285714285714" y2="914.2857142857144"></line><line x1="571.4285714285714" y1="800.0000000000001" x2="457.14285714285717" y2="914.2857142857144"></line><line x1="571.4285714285714" y1="800.0000000000001" x2="685.7142857142858" y2="914.2857142857144"></line><line x1="685.7142857142858" y1="800.0000000000001" x2="571.4285714285714" y2="914.2857142857144"></line><line x1="685.7142857142858" y1="800.0000000000001" x2="800.0000000000001" y2="914.2857142857144"></line><line x1="800.0000000000001" y1="800.0000000000001" x2="685.7142857142858" y2="914.2857142857144"></line><line x1="800.0000000000001" y1="800.0000000000001" x2="914.2857142857144" y2="914.2857142857144"></line><line x1="914.2857142857144" y1="800.0000000000001" x2="800.0000000000001" y2="914.2857142857144"></line></g></svg>